Coordinates
version=1
nRows=19
nColumns=24
inDegrees=yes

Units are S.I. units (second, meters, Newtons, ...)
Angles are in degrees.

endheader
time	pelvis_tilt	pelvis_list	pelvis_rotation	pelvis_tx	pelvis_ty	pelvis_tz	hip_flexion_r	hip_adduction_r	hip_rotation_r	knee_angle_r	ankle_angle_r	subtalar_angle_r	mtp_angle_r	hip_flexion_l	hip_adduction_l	hip_rotation_l	knee_angle_l	ankle_angle_l	subtalar_angle_l	mtp_angle_l	lumbar_extension	lumbar_bending	lumbar_rotation
      1.74150000	      0.08384562	      4.01865795	      1.09014231	      1.44434952	      1.02165305	      0.29129366	     13.28427359	     -3.36137844	     -1.54483680	    -61.58831037	      3.96196050	    -18.34395833	      0.97833328	      5.75691842	      9.16511028	      3.77448261	    -10.52550370	      1.40362406	    -17.14366744	      6.70385506	      0.31495605	     -4.81241069	      3.37136177
      1.74566667	      0.07718399	      3.91052323	      1.39283408	      1.44910436	      1.02220154	      0.29066779	     13.74272764	     -3.27747970	     -1.75903252	    -61.10056400	      4.07075158	    -18.40919381	      0.92566685	      5.27953796	      9.08418791	      4.19638432	    -10.19644499	      1.47592931	    -17.24768197	      6.66639603	      0.29728575	     -4.68123245	      3.02464200
      1.74983333	      0.04467791	      3.81467537	      1.69369127	      1.45382372	      1.02265204	      0.29008057	     14.23196214	     -3.20997181	     -1.96733638	    -60.61288702	      4.25420603	    -18.46752477	      0.90534675	      4.85915180	      8.99891093	      4.49854482	     -9.90932068	      1.51972666	    -17.13972245	      6.65470986	      0.30555276	     -4.57277224	      2.93592666
      1.75400000	      0.04575714	      3.72443016	      1.97274297	      1.45855699	      1.02313136	      0.28950246	     14.67820442	     -3.15284008	     -2.15964838	    -60.09279384	      4.38154625	    -18.53716090	      0.82125755	      4.37143487	      8.92525213	      4.90709773	     -9.55295077	      1.53124869	    -17.27918433	      6.59721734	      0.28765715	     -4.46992367	      2.56235916
      1.75816667	      0.03362939	      3.62713768	      2.25339547	      1.46320305	      1.02354859	      0.28894469	     15.13683651	     -3.08938775	     -2.34702365	    -59.55492697	      4.51296245	    -18.57588712	      0.75595999	      3.93346252	      8.83380563	      5.24371158	     -9.26072429	      1.61731813	    -17.27809854	      6.55845932	      0.26429361	     -4.35081573	      2.37994901
      1.76233333	      0.00975525	      3.52801549	      2.54267817	      1.46794616	      1.02394047	      0.28839747	     15.58550948	     -3.03237402	     -2.54824888	    -58.97828862	      4.64111685	    -18.61870411	      0.72449674	      3.51113970	      8.73082774	      5.53628874	     -8.98405012	      1.68411832	    -17.20315197	      6.54206731	      0.28342540	     -4.24833456	      2.27201327
      1.76650000	      0.00139679	      3.44495070	      2.81644193	      1.47258861	      1.02430166	      0.28787225	     16.02333024	     -2.98994981	     -2.72129230	    -58.39563232	      4.75375024	    -18.68471482	      0.63100740	      3.05794113	      8.64816021	      5.91711593	     -8.66128316	      1.69968300	    -17.30815646	      6.48425418	      0.25471339	     -4.15797505	      1.94802144
      1.77066667	     -0.00028045	      3.36471989	      3.07384139	      1.47725389	      1.02464383	      0.28737949	     16.44813524	     -2.95320496	     -2.88232695	    -57.79196927	      4.87126963	    -18.69338470	      0.56396842	      2.60684514	      8.55800513	      6.23032837	     -8.35800098	      1.78317659	    -17.30736495	      6.44531321	      0.23340905	     -4.06099708	      1.78818705
      1.77483333	     -0.04008816	      3.26846408	      3.33970096	      1.48193759	      1.02490764	      0.28690078	     16.90180827	     -2.90156197	     -3.04405705	    -57.15989503	      4.99941729	    -18.71533717	      0.53875080	      2.21346531	      8.44332884	      6.48926097	     -8.08475003	      1.84216527	    -17.21013659	      6.43218478	      0.25415308	     -3.95057398	      1.71056668
      1.77900000	     -0.04739015	      3.17141265	      3.60664206	      1.48659033	      1.02520293	      0.28643182	     17.29899188	     -2.85090072	     -3.20795975	    -56.48059331	      5.08541102	    -18.73374236	      0.50100852	      1.80081118	      8.32778527	      6.79750177	     -7.84684388	      1.93084283	    -17.21365175	      6.41133764	      0.24393089	     -3.86007713	      1.52743216
      1.78316667	     -0.04700774	      3.10207887	      3.85435818	      1.49126215	      1.02545554	      0.28600825	     17.69055510	     -2.82714558	     -3.34146964	    -55.80770530	      5.18791532	    -18.73098845	      0.45854038	      1.34917718	      8.23271383	      7.09163117	     -7.53532867	      1.97001357	    -17.23135723	      6.38725186	      0.22790423	     -3.78947434	      1.32319949
      1.78733333	     -0.05177707	      3.03658802	      4.08622272	      1.49588431	      1.02567868	      0.28560727	     18.08474438	     -2.80488767	     -3.45204948	    -55.11648761	      5.28603152	    -18.74043926	      0.37128913	      0.89375761	      8.14143978	      7.43316131	     -7.19500372	      1.96999689	    -17.35078522	      6.33188305	      0.19150122	     -3.71919343	      1.05408630
      1.79150000	     -0.06231472	      2.96113937	      4.31896413	      1.50055108	      1.02585845	      0.28521336	     18.47158876	     -2.77788842	     -3.56730700	    -54.39520900	      5.36352374	    -18.70190070	      0.31290633	      0.46915950	      8.03357690	      7.71357616	     -6.91719254	      2.05595438	    -17.35788047	      6.29380367	      0.18779346	     -3.63559587	      0.92220802
      1.79566667	     -0.06025648	      2.90097348	      4.55571570	      1.50515457	      1.02602534	      0.28484325	     18.83680815	     -2.76656747	     -3.67707292	    -53.66274002	      5.46919391	    -18.66714986	      0.23564933	      0.03324713	      7.93544030	      7.99985222	     -6.62840027	      2.07563819	    -17.39025466	      6.24229864	      0.15469443	     -3.57890415	      0.74996006
      1.79983333	     -0.08390687	      2.83718849	      4.77467786	      1.50978197	      1.02612777	      0.28450801	     19.22202528	     -2.74927408	     -3.76416027	    -52.90419543	      5.53474826	    -18.60696327	      0.18910377	     -0.36400814	      7.83199385	      8.25353852	     -6.36718937	      2.16641135	    -17.38609042	      6.20830979	      0.15258361	     -3.51364015	      0.62316389
      1.80400000	     -0.10574241	      2.77180571	      4.99146120	      1.51441160	      1.02621382	      0.28419659	     19.59171164	     -2.72847022	     -3.84165180	    -52.11607527	      5.61603383	    -18.53820241	      0.17117496	     -0.75935533	      7.71846542	      8.47259886	     -6.10346595	      2.22186257	    -17.30992673	      6.19499354	      0.15319967	     -3.45076248	      0.56242643
      1.80816667	     -0.08971189	      2.71824472	      5.18790088	      1.51905842	      1.02631537	      0.28390441	     19.91126616	     -2.71518174	     -3.89886741	    -51.31236651	      5.66625320	    -18.46961008	      0.13147463	     -1.22571334	      7.61491325	      8.76063907	     -5.78766452	      2.27149434	    -17.39725703	      6.15966379	      0.10673120	     -3.39757681	      0.36351515
      1.81233333	     -0.12822296	      2.66418513	      5.40047591	      1.52367089	      1.02630375	      0.28361598	     20.28297400	     -2.71269758	     -3.96633779	    -50.49308794	      5.74494566	    -18.37261130	      0.11949383	     -1.59383883	      7.50943167	      8.97068566	     -5.54172802	      2.33450056	    -17.33411481	      6.14777424	      0.12615853	     -3.34999866	      0.30636221
      1.81650000	     -0.14165343	      2.61293282	      5.60812022	      1.52827846	      1.02630890	      0.28334204	     20.61385524	     -2.71027046	     -4.02478741	    -49.64727923	      5.79772328	    -18.26177974	      0.10822021	     -1.99306043	      7.40206287	      9.20738818	     -5.28884063	      2.41531339	    -17.30544580	      6.13315041	      0.10984439	     -3.30101651	      0.19454241
